<?xml version="1.0" encoding="UTF-8" standalone="no"?>
<!DOCTYPE svg PUBLIC "-//W3C//DTD SVG 1.1//EN" "http://www.w3.org/Graphics/SVG/1.1/DTD/svg11.dtd">
<svg width="100%" height="100%" viewBox="0 0 709 683" version="1.1" xmlns="http://www.w3.org/2000/svg" xmlns:xlink="http://www.w3.org/1999/xlink" xml:space="preserve" xmlns:serif="http://www.serif.com/" style="fill-rule:evenodd;clip-rule:evenodd;stroke-linejoin:round;stroke-miterlimit:2;">
    <g transform="matrix(1.688645,0,0,1.688645,616.70673,367.733061)">
        <g transform="matrix(1,0,0,1,-0.187084,4.888225)">
            <g transform="matrix(0.95031,0,0,0.95031,-5.455344,-1.014831)">
                <path d="M0,-1.819C-1.334,-1.819 -2.424,-2.867 -2.424,-4.116C-2.424,-5.397 -1.334,-6.424 0,-6.424C1.301,-6.424 2.393,-5.397 2.393,-4.116C2.393,-2.867 1.301,-1.819 0,-1.819M0.751,-8.807C-3.822,-8.807 -7.528,-5.262 -7.528,-0.908C-7.528,3.453 -3.822,6.988 0.751,6.988C5.325,6.988 9,3.453 9,-0.908C9,-5.262 5.325,-8.807 0.751,-8.807" style="fill:rgb(44,52,101);fill-rule:nonzero;"/>
            </g>
            <g transform="matrix(0.95031,0,0,0.95031,4.235253,-49.929478)">
                <path d="M0,62.137C-3.057,73.311 -24.783,49.079 -25.783,43.989C-12.976,36.069 6.465,38.506 0,62.137M33.171,99.674L30.565,97.68L29.567,96.916C29.012,96.63 23.634,105.402 23.984,105.559C23.134,104.85 27.318,93.911 26.999,93.453C19.338,82.464 11.789,70.72 8.849,57.759C4.003,36.243 -9.822,23.126 -32.545,18.749C-34.173,18.423 -39.516,10.509 -47.251,5.221C-55.818,-0.636 -56.57,10.455 -60.873,14.744C-62.459,16.325 -62.638,16.89 -63.428,16.218C-81.366,0.948 -105.068,-4.128 -125.68,-2.563C-136.962,-1.707 -156.958,-34.191 -168.88,-45.808C-169.701,-46.635 -170.506,-47.469 -171.358,-48.283C-175.918,-52.406 -180.475,-56.3 -185.51,-59.733L-186.219,-60.195C-193.416,-64.988 -201.075,-69.118 -209.47,-72.549C-213.306,-74.145 -217.368,-75.525 -221.928,-76.659C-225.516,-77.806 -229.847,-78.729 -235.344,-79.407C-239.426,-80.103 -243.738,-80.553 -247.808,-80.787L-253.8,-80.787C-253.879,-80.787 -253.955,-80.783 -254.034,-80.782C-255.751,-80.78 -257.453,-80.739 -259.144,-80.674C-259.587,-80.657 -260.029,-80.637 -260.47,-80.616C-261.985,-80.543 -263.489,-80.447 -264.983,-80.324C-265.402,-80.289 -265.822,-80.254 -266.239,-80.215C-267.605,-80.09 -268.958,-79.936 -270.306,-79.769C-271.049,-79.675 -271.789,-79.577 -272.527,-79.471C-273.381,-79.349 -274.228,-79.211 -275.075,-79.072C-276.503,-78.836 -277.922,-78.577 -279.33,-78.292C-279.894,-78.178 -280.458,-78.066 -281.019,-77.945C-281.992,-77.733 -282.96,-77.513 -283.923,-77.278C-284.009,-77.257 -284.093,-77.234 -284.179,-77.213C-303.619,-72.43 -321.001,-62.828 -336.229,-48.283C-343.713,-41.136 -349.927,-33.509 -354.933,-25.407C-355.611,-24.311 -356.288,-23.214 -356.92,-22.1C-357.047,-21.876 -357.163,-21.647 -357.289,-21.423C-357.955,-20.227 -358.595,-19.021 -359.21,-17.804C-359.413,-17.403 -359.613,-17 -359.81,-16.596C-360.422,-15.345 -361.01,-14.085 -361.567,-12.813C-361.653,-12.617 -361.746,-12.425 -361.83,-12.229C-362.447,-10.796 -363.021,-9.346 -363.57,-7.885C-363.735,-7.446 -363.891,-7.004 -364.05,-6.562C-364.444,-5.468 -364.817,-4.365 -365.173,-3.255C-365.322,-2.789 -365.478,-2.326 -365.621,-1.858C-366.026,-0.531 -366.398,0.808 -366.75,2.157C-369.08,11.101 -370.256,20.518 -370.256,30.438C-370.256,51.044 -364.88,69.828 -354.307,86.802C-354.259,86.879 -354.212,86.957 -354.164,87.034C-353.518,88.077 -352.834,89.106 -352.148,90.135C-351.772,90.694 -351.406,91.256 -351.018,91.811C-350.581,92.44 -350.115,93.061 -349.661,93.684C-349.179,94.346 -348.71,95.012 -348.211,95.668C-346.848,97.396 -345.454,99.06 -344.046,100.69C-343.698,101.09 -343.35,101.489 -342.999,101.883C-342.053,102.954 -341.088,103.986 -340.122,105.014C-338.912,106.29 -337.688,107.539 -336.448,108.753C-336.149,109.046 -335.852,109.342 -335.551,109.631C-313.37,130.971 -286.179,141.673 -253.8,141.673L-185.51,141.673C-185.51,135.035 -186.948,129.084 -189.579,123.365C-199.394,104.818 -214.028,95.668 -233.91,95.668L-253.8,95.668C-272.731,95.668 -288.785,89.26 -301.966,76.671C-302.367,76.281 -302.743,75.882 -303.132,75.487C-303.605,75.008 -304.084,74.53 -304.539,74.043C-304.995,73.556 -305.43,73.061 -305.868,72.568C-306.273,72.11 -306.675,71.651 -307.065,71.188C-307.485,70.69 -307.896,70.189 -308.298,69.685C-308.69,69.192 -309.067,68.693 -309.443,68.194C-309.805,67.711 -310.174,67.231 -310.521,66.742C-311.089,65.94 -311.631,65.128 -312.157,64.31C-318.592,54.304 -321.855,43.045 -321.855,30.438C-321.855,24.482 -321.112,18.832 -319.665,13.473C-319.402,12.498 -319.116,11.532 -318.806,10.576C-319.116,11.532 -319.402,12.498 -319.665,13.473C-319.402,12.498 -319.116,11.532 -318.806,10.576C-318.663,10.14 -318.514,9.708 -318.362,9.276C-318.038,8.355 -317.69,7.443 -317.321,6.54C-317.209,6.267 -317.106,5.989 -316.99,5.717C-316.473,4.505 -315.914,3.311 -315.315,2.133C-315.239,1.984 -315.156,1.837 -315.079,1.689C-314.533,0.638 -313.953,-0.399 -313.342,-1.422C-313.953,-0.399 -314.533,0.638 -315.079,1.689C-315.156,1.837 -315.239,1.984 -315.315,2.133C-315.239,1.984 -315.156,1.837 -315.079,1.689C-314.533,0.638 -313.953,-0.398 -313.342,-1.422C-310.334,-6.462 -306.552,-11.18 -301.966,-15.559C-293.044,-24.234 -282.801,-29.963 -271.245,-32.766C-269.904,-33.091 -268.547,-33.381 -267.171,-33.627C-267.057,-33.648 -266.94,-33.662 -266.825,-33.682C-265.659,-33.885 -264.478,-34.056 -263.286,-34.202C-262.887,-34.252 -262.485,-34.293 -262.083,-34.336C-261.116,-34.438 -260.142,-34.522 -259.159,-34.587C-258.747,-34.615 -258.336,-34.647 -257.921,-34.668C-256.581,-34.737 -255.229,-34.781 -253.858,-34.782C-253.843,-34.782 -253.829,-34.783 -253.814,-34.783L-253.8,-34.783C-234.868,-34.783 -218.816,-28.376 -205.646,-15.559C-205.519,-15.439 -205.402,-15.315 -205.276,-15.195C-201.06,-11.103 -197.553,-6.735 -194.725,-2.077L-194.55,-2.169C-194.194,-1.599 -193.838,-1.029 -193.504,-0.45C-188.955,8.661 -186.083,20.301 -186.083,30.641L-186.083,95.87C-186.083,103.424 -184.411,110.523 -180.821,116.931C-171.602,132.586 -160.473,141.9 -143.448,142.867C-142.455,142.924 -128.419,142.874 -125.546,142.323C-125.34,142.284 -126.348,140.003 -127.491,139.74C-139.676,136.946 -136.166,107.972 -131.477,112.162C-131.477,112.162 -112.346,131.489 -96.677,138.575C-93.855,139.852 -87.84,141.626 -84.612,141.329C-84.253,141.296 -73.154,140.777 -70.549,140.291C-68.341,139.878 -72.133,138.185 -72.294,137.768C-73.631,136.528 -74.923,135.22 -76.137,133.853C-82.13,127.109 -86.252,118.935 -84.855,110.471C-82.836,98.253 -72.986,89.306 -60.828,85.464C-58.836,84.844 -56.882,84.401 -54.96,84.102C-54.617,84.128 -54.277,84.153 -53.932,84.199C-53.906,84.102 -53.88,84.01 -53.815,83.939C-51.055,83.594 -48.274,83.594 -45.494,83.993C-22.926,87.245 -4.828,103.766 17.888,108.218C19.797,108.592 21.914,108.447 23.925,108.114C28.497,109.244 33.171,105.057 33.171,105.057C37.163,103.455 33.171,99.674 33.171,99.674" style="fill:rgb(44,52,101);fill-rule:nonzero;"/>
            </g>
            <g transform="matrix(0.95031,0,0,0.95031,-237.171548,81.581562)">
                <path d="M0,-39.011L9.195,-38.906C17.634,-38.906 25.932,-38.856 32.654,-37.182C43.4,-34.507 51.27,-28.554 57.929,-18.588C60.831,-13.593 62.644,-5.908 62.644,-0.111L-7.737,0C2.815,-8.793 4.265,-24.096 0,-39.011" style="fill:rgb(90,185,145);fill-rule:nonzero;"/>
            </g>
            <g transform="matrix(-0.931882,-0.186239,-0.186239,0.931882,-313.093546,57.244489)">
                <path d="M-10.731,-48.427C-16.787,-41.42 -26.429,-35.858 -33.512,-33.519C-33.927,-24.491 -20.709,-3.058 -10.731,-0.125C0.619,-5.117 11.976,-13.916 19.944,-23.63C11.072,-23.568 -8.545,-40.348 -10.731,-48.427" style="fill:rgb(90,185,145);fill-rule:nonzero;"/>
            </g>
            <g transform="matrix(0.818686,-0.482538,-0.482538,-0.818686,-296.510869,-32.210647)">
                <path d="M-13.563,-5.84C-33.534,0.819 -39.91,8.419 -43.913,23.943C-36.475,34.414 -25.14,44.12 -13.563,50.209C-12.475,35.213 -4.918,25.322 5.515,14.131C-2.898,9.427 -10.045,0.634 -13.563,-5.84" style="fill:rgb(90,185,145);fill-rule:nonzero;"/>
            </g>
            <g transform="matrix(0.888908,0.336053,0.336053,-0.888908,-281.040494,-79.330438)">
                <path d="M8.655,0.194C-6.199,2.708 -15.247,9.636 -21.707,25.078C-13.225,35.406 -3.646,43.678 8.655,51.045C11.274,37.045 19.033,28.926 30.648,18.92C21.973,14.545 13.876,7.367 8.655,0.194" style="fill:rgb(90,185,145);fill-rule:nonzero;"/>
            </g>
            <g transform="matrix(0.949863,-0.029155,-0.029155,-0.949863,-186.00718,-64.729834)">
                <path d="M-0.771,0.098C-5.705,7.047 -15.006,13.88 -21.84,17.805C-18.609,31.089 -13.599,40.097 -0.771,50.49C9.71,45.029 19.227,37.873 27.309,28.275C14.472,22.799 7.458,12.9 -0.771,0.098" style="fill:rgb(90,185,145);fill-rule:nonzero;"/>
            </g>
        </g>
    </g>
</svg>
